Coordinates
version=1
nRows=4
nColumns=60
inDegrees=yes

Units are S.I. units (second, meters, Newtons, ...)
If the header above contains a line with 'inDegrees', this indicates whether rotational values are in degrees (yes) or radians (no).

endheader
time	pelvis_tilt	pelvis_list	pelvis_rotation	pelvis_tx	pelvis_ty	pelvis_tz	hip_flexion_r	hip_adduction_r	hip_rotation_r	knee_angle_r_beta	knee_angle_r	ankle_angle_r	subtalar_angle_r	mtp_angle_r	hip_flexion_l	hip_adduction_l	hip_rotation_l	knee_angle_l_beta	knee_angle_l	ankle_angle_l	subtalar_angle_l	mtp_angle_l	L5_S1_Flex_Ext	L5_S1_Lat_Bending	L5_S1_axial_rotation	L4_L5_Flex_Ext	L4_L5_Lat_Bending	L4_L5_axial_rotation	L3_L4_Flex_Ext	L3_L4_Lat_Bending	L3_L4_axial_rotation	L2_L3_Flex_Ext	L2_L3_Lat_Bending	L2_L3_axial_rotation	L1_L2_Flex_Ext	L1_L2_Lat_Bending	L1_L2_axial_rotation	L1_T12_Flex_Ext	L1_T12_Lat_Bending	L1_T12_axial_rotation	Abs_r3	Abs_r2	Abs_r1	Abs_t1	Abs_t2	arm_flex_r	arm_add_r	arm_rot_r	elbow_flex_r	pro_sup_r	wrist_flex_r	wrist_dev_r	arm_flex_l	arm_add_l	arm_rot_l	elbow_flex_l	pro_sup_l	wrist_flex_l	wrist_dev_l
     15.33000000	      0.29852591	     17.42884617	     92.63797461	      0.40520502	      0.94650865	      0.25468150	    -10.69197779	     -4.06074100	     -2.25289313	      0.27184764	    -15.57572239	     12.45681676	      0.00000000	      0.00000000	     -8.55773276	     -7.12088565	     -2.42769618	      0.29842270	    -17.09836115	     13.31904975	      0.00000000	      0.00000000	     -6.36443213	      0.16214028	     -0.09384791	    -11.81938691	      0.21564657	     -0.09971340	    -10.45612555	      0.39422787	     -0.09971340	     -7.27390948	      0.39422787	     -0.08211692	     -5.91001168	      0.33063646	     -0.07625142	     -3.63663652	      0.25115529	     -0.07038593	    -45.46050227	      1.83416326	     -0.52195390	      0.00000000	      0.00000000	     15.69922750	    -32.18868313	     10.27268065	     93.86831682	     58.44981233	     -4.02387743	     36.66560305	     17.16945262	    -25.83850074	      7.74116651	     89.37945832	     62.84953755	      2.33711584	     33.42198880
     15.34000000	      0.27250753	     17.43611479	     92.71815909	      0.40490980	      0.94653838	      0.25352023	    -10.79766694	     -4.07687520	     -2.28351133	      0.27183586	    -15.57504726	     12.46481409	      0.00000000	      0.00000000	     -8.64217656	     -7.10164808	     -2.45882350	      0.29807365	    -17.07836234	     13.33377354	      0.00000000	      0.00000000	     -6.30406412	      0.16582932	     -0.10544637	    -11.70727747	      0.22055299	     -0.11203677	    -10.35694694	      0.40319740	     -0.11203677	     -7.20491488	      0.40319740	     -0.09226557	     -5.85395394	      0.33815914	     -0.08567517	     -3.60214224	      0.25686961	     -0.07908478	    -45.02929957	      1.87589440	     -0.58646106	      0.00000000	      0.00000000	     16.24459922	    -32.23730026	     10.14538023	     93.98981253	     58.44458786	     -4.02906714	     36.65793884	     17.70739951	    -25.87108587	      7.75494601	     89.48813641	     62.81361986	      2.33083230	     33.43401060
     15.35000000	      0.17990684	     17.47731699	     92.92114117	      0.40447840	      0.94658485	      0.25242142	    -10.97685823	     -4.15125810	     -2.54460301	      0.27134788	    -15.54708828	     12.57114573	      0.00000000	      0.00000000	     -8.75823845	     -7.02324053	     -2.25552601	      0.29698095	    -17.01575528	     13.41308169	      0.00000000	      0.00000000	     -6.22043200	      0.17146775	     -0.09808393	    -11.55196427	      0.22805210	     -0.10421418	    -10.21954774	      0.41690668	     -0.10421418	     -7.10933174	      0.41690668	     -0.08582344	     -5.77629316	      0.34965703	     -0.07969319	     -3.55435485	      0.26560354	     -0.07356295	    -44.43192375	      1.93967743	     -0.54551339	      0.00000000	      0.00000000	     16.87508921	    -32.41948684	     10.29256883	     93.64069563	     57.87167551	     -4.51852340	     37.26909671	     19.07994133	    -26.16204403	      9.13428041	     88.71546446	     60.76208659	      1.53589442	     34.75406858
     15.36000000	      0.15727666	     17.44153521	     92.98816507	      0.40421947	      0.94652877	      0.25153875	    -11.00779240	     -4.16904753	     -2.58485654	      0.27115093	    -15.53580402	     12.58352152	      0.00000000	      0.00000000	     -8.78204073	     -7.00397793	     -2.28220032	      0.29637233	    -16.98088380	     13.43002044	      0.00000000	      0.00000000	     -6.17546699	      0.17452518	     -0.11053727	    -11.46845975	      0.23211849	     -0.11744585	    -10.14567472	      0.42434053	     -0.11744585	     -7.05794123	      0.42434053	     -0.09672011	     -5.73453865	      0.35589175	     -0.08981153	     -3.52866184	      0.27033951	     -0.08290295	    -44.11074318	      1.97426377	     -0.61477511	      0.00000000	      0.00000000	     17.52329849	    -32.43006608	     10.14873213	     93.76126093	     57.87521578	     -4.51734741	     37.24806041	     19.70338320	    -26.18887800	      9.10541828	     88.80954077	     60.75849227	      1.53937190	     34.74358801
